<svg xmlns="http://www.w3.org/2000/svg" xmlns:xlink="http://www.w3.org/1999/xlink" width="66.393" height="63.252" viewBox="0 0 66.393 63.252">
  <defs>
    <clipPath id="clip-path">
      <rect id="Retângulo_76" data-name="Retângulo 76" width="66.393" height="63.252" fill="#fff"/>
    </clipPath>
  </defs>
  <g id="Grupo_176" data-name="Grupo 176" clip-path="url(#clip-path)">
    <path id="Caminho_107" data-name="Caminho 107" d="M48.57,8.241H24.941a.852.852,0,1,1,0-1.7H48.57a.852.852,0,1,1,0,1.7" transform="translate(-3.559 -0.966)" fill="#fff"/>
    <path id="Caminho_108" data-name="Caminho 108" d="M57.3,60.362H11.421A3.545,3.545,0,0,1,7.88,56.82V21.813h.852V56.82a2.692,2.692,0,0,0,2.689,2.689H57.3A2.692,2.692,0,0,0,59.99,56.82V21.813h.852V56.82A3.545,3.545,0,0,1,57.3,60.362" transform="translate(-1.164 -3.223)" fill="#fff"/>
    <rect id="Retângulo_70" data-name="Retângulo 70" width="63.487" height="0.852" transform="translate(1.447 18.163)" fill="#fff"/>
    <rect id="Retângulo_71" data-name="Retângulo 71" width="0.852" height="38.123" transform="translate(32.764 18.589)" fill="#fff"/>
    <rect id="Retângulo_72" data-name="Retângulo 72" width="0.852" height="38.123" transform="translate(19.773 18.589)" fill="#fff"/>
    <rect id="Retângulo_73" data-name="Retângulo 73" width="0.852" height="38.123" transform="translate(46.254 18.589)" fill="#fff"/>
    <rect id="Retângulo_74" data-name="Retângulo 74" width="51.678" height="0.852" transform="translate(7.135 30.774)" fill="#fff"/>
    <rect id="Retângulo_75" data-name="Retângulo 75" width="52.111" height="0.852" transform="translate(7.135 43.675)" fill="#fff"/>
    <path id="Caminho_109" data-name="Caminho 109" d="M60.105,64.218H6.287A6.294,6.294,0,0,1,0,57.931V12.824A6.294,6.294,0,0,1,6.287,6.536H13.8a.852.852,0,0,1,0,1.7H6.287A4.588,4.588,0,0,0,1.7,12.824V57.931a4.588,4.588,0,0,0,4.582,4.582H60.105a4.588,4.588,0,0,0,4.583-4.582V12.824A4.589,4.589,0,0,0,60.105,8.24H52.793a.852.852,0,0,1,0-1.7h7.312a6.3,6.3,0,0,1,6.288,6.288V57.931a6.3,6.3,0,0,1-6.288,6.287" transform="translate(0 -0.966)" fill="#fff"/>
    <path id="Caminho_110" data-name="Caminho 110" d="M19.905,12.291A3.555,3.555,0,0,1,16.354,8.74V3.551a3.551,3.551,0,0,1,7.1,0V8.74a3.555,3.555,0,0,1-3.551,3.551m0-11.439a2.7,2.7,0,0,0-2.7,2.7V8.74a2.7,2.7,0,1,0,5.4,0V3.551a2.7,2.7,0,0,0-2.7-2.7" transform="translate(-2.416 0)" fill="#fff"/>
    <path id="Caminho_111" data-name="Caminho 111" d="M56.767,12.291A3.555,3.555,0,0,1,53.216,8.74V3.551a3.551,3.551,0,0,1,7.1,0V8.74a3.556,3.556,0,0,1-3.551,3.551m0-11.439a2.7,2.7,0,0,0-2.7,2.7V8.74a2.7,2.7,0,0,0,5.4,0V3.551a2.7,2.7,0,0,0-2.7-2.7" transform="translate(-7.863 0)" fill="#fff"/>
  </g>
</svg>
