<svg xmlns="http://www.w3.org/2000/svg" width="28.296" height="32.84" viewBox="0 0 28.296 32.84">
  <g id="Componente_88_1" data-name="Componente 88 – 1" transform="translate(0.65 0.65)">
    <path id="Caminho_262" data-name="Caminho 262" d="M28.686,9.992c-.79-.26-3.737,1.876-6.622,4.687-3.035,2.956-5.133,5.771-4.863,6.487a.263.263,0,0,0,.053.09c1.67,1.71,6.583,1.591,9.763-1.506a8.283,8.283,0,0,0,1.842-9.6A.271.271,0,0,0,28.686,9.992Z" transform="translate(-9.826 -5.894)" fill="none" stroke="#051f4a" stroke-linecap="round" stroke-linejoin="round" stroke-width="0.8"/>
    <path id="Caminho_263" data-name="Caminho 263" d="M17.229,21.3a33.585,33.585,0,0,0,4.073-2.63,30.577,30.577,0,0,0,7.376-8.455" transform="translate(-9.854 -6.026)" fill="none" stroke="#051f4a" stroke-linecap="round" stroke-linejoin="round" stroke-width="0.8"/>
    <path id="Caminho_264" data-name="Caminho 264" d="M36.418,22.707A7.412,7.412,0,0,0,38.9,16.445" transform="translate(-20.324 -9.426)" fill="none" stroke="#051f4a" stroke-linecap="round" stroke-linejoin="round" stroke-width="0.8"/>
    <rect id="Retângulo_283" data-name="Retângulo 283" width="26.996" height="31.54" rx="5" fill="none" stroke="#051f4a" stroke-linecap="round" stroke-linejoin="round" stroke-width="1.3"/>
    <line id="Linha_58" data-name="Linha 58" x1="20.11" transform="translate(3.443 20.164)" fill="none" stroke="#051f4a" stroke-linecap="round" stroke-linejoin="round" stroke-width="0.8"/>
    <line id="Linha_59" data-name="Linha 59" x1="20.11" transform="translate(3.443 23.131)" fill="none" stroke="#051f4a" stroke-linecap="round" stroke-linejoin="round" stroke-width="0.8"/>
    <line id="Linha_60" data-name="Linha 60" x1="9.656" transform="translate(3.443 26.099)" fill="none" stroke="#051f4a" stroke-linecap="round" stroke-linejoin="round" stroke-width="0.8"/>
  </g>
</svg>
