<svg xmlns="http://www.w3.org/2000/svg" xmlns:xlink="http://www.w3.org/1999/xlink" width="65.111" height="70.794" viewBox="0 0 65.111 70.794">
  <defs>
    <clipPath id="clip-path">
      <rect id="Retângulo_78" data-name="Retângulo 78" width="65.111" height="70.794" fill="none"/>
    </clipPath>
  </defs>
  <g id="Grupo_180" data-name="Grupo 180" clip-path="url(#clip-path)">
    <path id="Caminho_117" data-name="Caminho 117" d="M8.617,70.944a.472.472,0,0,1-.322-.818l23.7-22.018a.474.474,0,0,1,.612-.025.462.462,0,0,1,.125.1l20.2,21.744a.472.472,0,1,1-.691.643L32.305,49.108,8.938,70.817a.467.467,0,0,1-.321.127M62.759,66.27a.473.473,0,0,1-.346-.151L39.715,41.69a.486.486,0,0,1-.1-.178.471.471,0,0,1,.1-.568L63.878,18.485a.472.472,0,1,1,.642.691L40.673,41.333,63.1,65.476a.473.473,0,0,1-.346.794M.977,63.671a.472.472,0,0,1-.322-.818L26.782,38.58a.472.472,0,0,1,.642.692L1.3,63.545a.47.47,0,0,1-.321.126M47.791,20.177a.472.472,0,0,1-.321-.818l8.769-8.148a.472.472,0,1,1,.643.691l-8.77,8.148a.467.467,0,0,1-.321.127" transform="translate(-0.028 -0.62)" fill="#fff"/>
    <path id="Caminho_118" data-name="Caminho 118" d="M54.4,71.348H10.713A10.765,10.765,0,0,1,0,60.641V20.626A10.768,10.768,0,0,1,10.71,9.914h7.811V11.8H10.713a8.874,8.874,0,0,0-8.825,8.827V60.638a8.872,8.872,0,0,0,8.828,8.822H54.4a8.87,8.87,0,0,0,8.822-8.825V20.627A8.871,8.871,0,0,0,54.4,11.8H47.1V9.915h7.3a10.765,10.765,0,0,1,10.71,10.709V60.638A10.763,10.763,0,0,1,54.4,71.348" transform="translate(0 -0.554)" fill="#fff"/>
    <path id="Caminho_119" data-name="Caminho 119" d="M33.526,44.533c-4.3,0-13.01-16.247-15.084-22.623a15.781,15.781,0,0,1-1.014-4.52l-.042-.722.938-.173-.943.047,0-.392a16.15,16.15,0,1,1,32.3,0v.225a3.456,3.456,0,0,1-.015.366l-.041.691a16.043,16.043,0,0,1-.963,4.366,67.128,67.128,0,0,1-6.976,14.329c-4.687,7.448-6.82,8.406-8.155,8.406V42.643c.428,0,2.166-.544,6.563-7.531a65.378,65.378,0,0,0,6.792-13.953,14.26,14.26,0,0,0,.857-3.872l.042-.691a1.947,1.947,0,0,0,.008-.222v-.223a14.262,14.262,0,1,0-28.524,0l.045,1.1a14.041,14.041,0,0,0,.91,4.029C23.027,29.9,31.338,42.645,33.526,42.645Z" transform="translate(-0.971 0)" fill="#fff"/>
    <path id="Caminho_120" data-name="Caminho 120" d="M33.9,23.721a7.031,7.031,0,0,1,0-14.062,5.939,5.939,0,0,1,4.294,1.572l-1.281,1.387a4.053,4.053,0,0,0-2.964-1.073A5.144,5.144,0,1,0,33.9,21.833h0a5.143,5.143,0,0,0,5.139-5.146,2.228,2.228,0,0,0-.177-1.062l1.725-.767a4.009,4.009,0,0,1,.338,1.884,7.025,7.025,0,0,1-7.024,6.98Z" transform="translate(-1.502 -0.54)" fill="#fff"/>
    <path id="Caminho_121" data-name="Caminho 121" d="M39.245,16.536a2.726,2.726,0,0,1,0-5.451h.02A2.717,2.717,0,0,1,41.97,13.78v.027a2.73,2.73,0,0,1-2.722,2.729Zm.012-4.507h-.013a1.782,1.782,0,1,0,0,3.563h0a1.784,1.784,0,0,0,1.78-1.784v-.025a1.771,1.771,0,0,0-1.769-1.753" transform="translate(-2.04 -0.62)" fill="#fff"/>
  </g>
</svg>
