<svg xmlns="http://www.w3.org/2000/svg" width="28" height="30.392" viewBox="0 0 28 30.392">
  <g id="Componente_89_1" data-name="Componente 89 – 1" transform="translate(0.3 0.3)">
    <path id="Caminho_257" data-name="Caminho 257" d="M3.918,36.275a.2.2,0,0,1-.135-.344l9.973-9.266a.2.2,0,0,1,.257-.011.194.194,0,0,1,.052.04l8.5,9.15a.2.2,0,1,1-.291.271l-8.389-9.03L4.053,36.222a.2.2,0,0,1-.135.053M26.7,34.308a.2.2,0,0,1-.146-.064l-9.551-10.28a.2.2,0,0,1-.044-.075A.2.2,0,0,1,17,23.65L27.174,14.2a.2.2,0,1,1,.27.291L17.408,23.814l9.44,10.16a.2.2,0,0,1-.145.334M.7,33.214a.2.2,0,0,1-.135-.344L11.563,22.656a.2.2,0,0,1,.27.291L.838,33.162a.2.2,0,0,1-.135.053m19.7-18.3a.2.2,0,0,1-.135-.344l3.69-3.429a.2.2,0,1,1,.271.291l-3.691,3.429a.2.2,0,0,1-.135.053" transform="translate(-0.303 -6.681)" fill="#051f4a" stroke="#051f4a" stroke-width="0.6"/>
    <path id="Caminho_258" data-name="Caminho 258" d="M22.894,35.767H4.508A4.53,4.53,0,0,1,0,31.261V14.422A4.531,4.531,0,0,1,4.507,9.914H7.794v.795H4.508A3.734,3.734,0,0,0,.795,14.423V31.26a3.734,3.734,0,0,0,3.715,3.712H22.893a3.733,3.733,0,0,0,3.712-3.714V14.422a3.733,3.733,0,0,0-3.714-3.713H19.819V9.914h3.074A4.53,4.53,0,0,1,27.4,14.421V31.26a4.529,4.529,0,0,1-4.506,4.507" transform="translate(0 -5.975)" fill="#051f4a" stroke="#051f4a" stroke-width="0.6"/>
    <path id="Caminho_259" data-name="Caminho 259" d="M24.173,18.741c-1.809,0-5.475-6.837-6.348-9.52a6.641,6.641,0,0,1-.427-1.9l-.017-.3.395-.073-.4.02,0-.165a6.8,6.8,0,1,1,13.593,0v.095a1.454,1.454,0,0,1-.006.154l-.017.291a6.751,6.751,0,0,1-.405,1.837,28.249,28.249,0,0,1-2.936,6.03c-1.972,3.134-2.87,3.537-3.432,3.537v-.795c.18,0,.911-.229,2.762-3.169A27.513,27.513,0,0,0,29.793,8.9a6,6,0,0,0,.361-1.629l.017-.291a.82.82,0,0,0,0-.093V6.8a6,6,0,1,0-12,0l.019.462a5.909,5.909,0,0,0,.383,1.7c1.181,3.629,4.678,8.992,5.6,8.992Z" transform="translate(-10.473)" fill="#051f4a" stroke="#051f4a" stroke-width="0.6"/>
    <path id="Caminho_260" data-name="Caminho 260" d="M29.833,15.572a2.959,2.959,0,0,1,0-5.918,2.5,2.5,0,0,1,1.807.662L31.1,10.9a1.706,1.706,0,0,0-1.247-.451,2.165,2.165,0,1,0-.019,4.329h0A2.164,2.164,0,0,0,32,12.612a.938.938,0,0,0-.074-.447l.726-.323a1.687,1.687,0,0,1,.142.793,2.956,2.956,0,0,1-2.956,2.937Z" transform="translate(-16.197 -5.817)" fill="#051f4a" stroke="#051f4a" stroke-width="0.6"/>
    <path id="Caminho_261" data-name="Caminho 261" d="M37.665,13.379a1.147,1.147,0,0,1,0-2.294h.008a1.143,1.143,0,0,1,1.141,1.134v.012a1.149,1.149,0,0,1-1.145,1.149Zm.005-1.9h-.006a.75.75,0,1,0,0,1.5h0a.751.751,0,0,0,.749-.751V12.22a.745.745,0,0,0-.745-.738" transform="translate(-22.01 -6.681)" fill="#051f4a" stroke="#051f4a" stroke-width="0.6"/>
  </g>
</svg>
