<svg xmlns="http://www.w3.org/2000/svg" xmlns:xlink="http://www.w3.org/1999/xlink" width="107.109" height="68.004" viewBox="0 0 107.109 68.004">
  <defs>
    <clipPath id="clip-path">
      <rect id="Retângulo_77" data-name="Retângulo 77" width="107.109" height="68.004" transform="translate(0 0)" fill="none"/>
    </clipPath>
  </defs>
  <g id="Grupo_178" data-name="Grupo 178" transform="translate(0 0)" clip-path="url(#clip-path)">
    <path id="Caminho_112" data-name="Caminho 112" d="M13.827,53.571a1,1,0,0,1-1-1V45.286H10.161A10.211,10.211,0,0,1,0,35.128V10.161A10.214,10.214,0,0,1,10.156,0H49.14A10.252,10.252,0,0,1,59.185,8.658a1,1,0,0,1-1.978.3A8.236,8.236,0,0,0,49.138,2H10.159A8.208,8.208,0,0,0,2,10.164V35.125a8.206,8.206,0,0,0,8.164,8.161h3.663a1,1,0,0,1,1,1v5.871l6.579-6.578a1,1,0,0,1,.707-.293H42.295a1,1,0,0,1,0,2H22.527l-7.993,7.992a1,1,0,0,1-.707.293" fill="#fff"/>
    <path id="Caminho_113" data-name="Caminho 113" d="M92.317,68l-9.938-9.939H52.466a10.762,10.762,0,0,1-10.7-10.706V19.544a10.763,10.763,0,0,1,10.7-10.707H95.9a10.764,10.764,0,0,1,10.706,10.706V47.358A10.765,10.765,0,0,1,95.9,58.065H92.317ZM52.466,9.837a9.76,9.76,0,0,0-9.7,9.708V47.358a9.759,9.759,0,0,0,9.706,9.707H82.793l8.524,8.524V57.065H95.9a9.761,9.761,0,0,0,9.707-9.708V19.544A9.761,9.761,0,0,0,95.9,9.837Z" fill="#fff"/>
    <path id="Caminho_114" data-name="Caminho 114" d="M91.817,67.8a1,1,0,0,1-.707-.292l-8.938-8.939H52.466a11.263,11.263,0,0,1-11.2-11.2V19.544a11.263,11.263,0,0,1,11.2-11.207H95.906a11.264,11.264,0,0,1,11.2,11.2V47.358A11.265,11.265,0,0,1,95.9,58.565H92.817V66.8a1,1,0,0,1-.617.924.987.987,0,0,1-.383.076M52.466,10.337a9.258,9.258,0,0,0-9.2,9.21V47.358a9.257,9.257,0,0,0,9.208,9.207H82.586a1,1,0,0,1,.707.293l7.524,7.524V57.565a1,1,0,0,1,1-1H95.9a9.259,9.259,0,0,0,9.207-9.21V19.544A9.259,9.259,0,0,0,95.9,10.337Z" fill="#fff"/>
    <path id="Caminho_115" data-name="Caminho 115" d="M28.21,30.2a1.431,1.431,0,0,1,1.475,1.386c0,.019,0,.038,0,.058v.613a1.476,1.476,0,0,1-2.95.083c0-.028,0-.056,0-.083v-.613A1.43,1.43,0,0,1,28.151,30.2h.059m-.03-2.552a.86.86,0,0,1-.8-.83l-.339-3.441a.935.935,0,0,1,.785-1.065.973.973,0,0,1,.106-.01c3.258-.246,5.316-1.691,5.316-4.27v-.061c0-2.213-1.72-4-4.486-4a6.66,6.66,0,0,0-5.07,2.4,1.275,1.275,0,0,1-.829.337,1.079,1.079,0,0,1-1.106-1.049v-.027a1.192,1.192,0,0,1,.37-.829,8.632,8.632,0,0,1,6.7-3.012c4.148,0,6.882,2.582,6.882,6.084v.061c0,3.841-2.888,5.745-6.391,6.238L29.1,26.815a.84.84,0,0,1-.8.83Z" fill="#fff"/>
    <path id="Caminho_116" data-name="Caminho 116" d="M74.184,46.945H54.659a.5.5,0,1,1,0-1H74.184a.5.5,0,0,1,0,1M93.8,38.6H54.659a.5.5,0,1,1,0-1H93.8a.5.5,0,0,1,0,1m0-8.349H54.659a.5.5,0,0,1,0-1H93.8a.5.5,0,0,1,0,1m0-9.266H54.659a.5.5,0,0,1,0-1H93.8a.5.5,0,0,1,0,1" fill="#fff"/>
  </g>
</svg>
