<svg xmlns="http://www.w3.org/2000/svg" xmlns:xlink="http://www.w3.org/1999/xlink" width="84.094" height="72.959" viewBox="0 0 84.094 72.959">
  <defs>
    <clipPath id="clip-path">
      <rect id="Retângulo_201" data-name="Retângulo 201" width="84.094" height="72.959" transform="translate(0 0)" fill="none"/>
    </clipPath>
  </defs>
  <g id="Grupo_484" data-name="Grupo 484" transform="translate(-1247 -389)">
    <g id="Grupo_483" data-name="Grupo 483" transform="translate(1247 389)">
      <g id="Grupo_482" data-name="Grupo 482" clip-path="url(#clip-path)">
        <circle id="Elipse_29" data-name="Elipse 29" cx="12.97" cy="12.97" r="12.97" transform="translate(11.582 28.807)" fill="none" stroke="#fff" stroke-linecap="round" stroke-linejoin="round" stroke-width="2"/>
        <path id="Caminho_189" data-name="Caminho 189" d="M14.525,50.7A24.3,24.3,0,0,0,1,71.959H48.1A24.3,24.3,0,0,0,34.578,50.7" fill="none" stroke="#fff" stroke-linecap="round" stroke-linejoin="round" stroke-width="2"/>
        <path id="Caminho_190" data-name="Caminho 190" d="M70.056,19.065A8.977,8.977,0,1,1,66.37,14.58" fill="none" stroke="#fff" stroke-linecap="round" stroke-linejoin="round" stroke-width="2"/>
        <circle id="Elipse_30" data-name="Elipse 30" cx="2.377" cy="2.377" r="2.377" transform="translate(66.17 14.157)" fill="none" stroke="#fff" stroke-linecap="round" stroke-linejoin="round" stroke-width="1"/>
        <path id="Caminho_191" data-name="Caminho 191" d="M78.159,29.07l3.081-.153a1.465,1.465,0,0,0,1.37-1.208l.462-2.617a1.465,1.465,0,0,0-.874-1.6L79.609,22.4a1.476,1.476,0,0,1-.913-1.253,17.012,17.012,0,0,0-1.743-6.533,1.45,1.45,0,0,1,.131-1.472l1.526-2.166A1.465,1.465,0,0,0,78.5,9.149L76.723,7.174a1.465,1.465,0,0,0-1.8-.3L72.737,8.093a1.441,1.441,0,0,1-1.509-.051A17.049,17.049,0,0,0,65.877,5.62a1.473,1.473,0,0,1-1.05-1.107L64.286,2.14A1.463,1.463,0,0,0,62.859,1H60.2a1.465,1.465,0,0,0-1.428,1.139l-.559,2.45a1.469,1.469,0,0,1-1.067,1.08,17.045,17.045,0,0,0-6.2,3.132,1.444,1.444,0,0,1-1.51.157L47.071,7.846a1.465,1.465,0,0,0-1.776.424l-1.637,2.094a1.466,1.466,0,0,0,.018,1.827l1.791,2.2a1.49,1.49,0,0,1,.211,1.5,17.05,17.05,0,0,0-1.21,6.322v.01a1.476,1.476,0,0,1-.794,1.334l-2.7,1.368a1.465,1.465,0,0,0-.76,1.661l.643,2.579a1.464,1.464,0,0,0,1.45,1.11l3.267-.065a1.481,1.481,0,0,1,1.3.743,17.21,17.21,0,0,0,3.947,4.566,1.493,1.493,0,0,1,.5,1.452l-.646,3.278a1.465,1.465,0,0,0,.841,1.621l2.428,1.081a1.462,1.462,0,0,0,1.767-.459L57.77,39.74a1.439,1.439,0,0,1,1.35-.575,17.182,17.182,0,0,0,5.962-.174,1.446,1.446,0,0,1,1.4.455l2.241,2.592a1.464,1.464,0,0,0,1.795.335l2.347-1.247a1.465,1.465,0,0,0,.726-1.676l-.856-3.163a1.441,1.441,0,0,1,.437-1.436,17.192,17.192,0,0,0,3.74-4.943A1.491,1.491,0,0,1,78.159,29.07Z" fill="none" stroke="#fff" stroke-linecap="round" stroke-linejoin="round" stroke-width="2"/>
      </g>
    </g>
  </g>
</svg>
